{"title":"The Magicians US S01 720p BluRay HEVC 2CH x265 [720P][HEVC]","uid":15397539,"size":4486277188,"categoryP":"video","categoryS":"hd___tv_shows","magnet":"?xt=urn:btih:53b6b1ae342ca65b2ee4966d13bc0ff489a278d4&amp;dn=The+Magicians+US+S01+720p+BluRay+HEVC+2CH+x265+%5B720P%5D%5BHEVC%5D&amp;tr=udp%3A%2F%2Ftracker.leechers-paradise.org%3A6969&amp;tr=udp%3A%2F%2Fzer0day.ch%3A1337&amp;tr=udp%3A%2F%2Fopen.demonii.com%3A1337&amp;tr=udp%3A%2F%2Ftracker.coppersurfer.tk%3A6969&amp;tr=udp%3A%2F%2Fexodus.desync.com%3A6969","seeders":1,"leechers":0,"uploader":"nayhtut","files":26,"time":1469410166,"description":"[Screenshots]\r\n \nhttps://s31.postimg.org/faruk8i7f/The_Magicians_US_S01_E04_720p_Blu_Ray_HEVC_2_CH_x26.jpg \nhttps://s31.postimg.org/lpqvgwox7/The_Magicians_US_S01_E13_720p_Blu_Ray_HEVC_2_CH_x26.jpg \nhttps://s31.postimg.org/4qhx1ndpn/The_Magicians_US_S01_E12_720p_Blu_Ray_HEVC_2_CH_x26.jpg \nhttps://s31.postimg.org/hvxf7r7l7/The_Magicians_US_S01_E10_720p_Blu_Ray_HEVC_2_CH_x26.jpg \nhttps://s31.postimg.org/t9jyiyi3v/The_Magicians_US_S01_E09_720p_Blu_Ray_HEVC_2_CH_x26.jpg \nhttps://s31.postimg.org/4ubqhwj6z/The_Magicians_US_S01_E07_720p_Blu_Ray_HEVC_2_CH_x26.jpg \nhttps://s31.postimg.org/tc3u5slrf/The_Magicians_US_S01_E05_720p_Blu_Ray_HEVC_2_CH_x26.jpg \nhttps://s31.postimg.org/ufnyhr6ej/The_Magicians_US_S01_E03_720p_Blu_Ray_HEVC_2_CH_x26.jpg \nhttps://s31.postimg.org/5nocaip7v/The_Magicians_US_S01_E01_720p_Blu_Ray_HEVC_2_CH_x26.jpg\r\n\r\n\r\n\r\nSource:  The Magicians US S01 1080p BluRay x264-ROVERS (Size: 43.33 GB)\r\n\r\nContains:   The Magicians US Season One - Episode 01 to 13\r\n\r\nFormat                                   : Matroska\r\nFormat version                           : Version 4 / Version 2\r\nFile size                                : 4.17 GiB\r\nDuration                                 : Various\r\nOverall bit rate                         : 1 057 Kbps\r\nWriting application                      : Lavf57.25.100\r\nWriting library                          : Lavf57.25.100\r\n\r\nVideo\r\n\r\nID                                       : 1\r\nFormat                                   : V_MPEGH/ISO/HEVC\r\nCodec ID                                 : V_MPEGH/ISO/HEVC\r\nDuration                                 : 52mn 9s\r\nBit rate                                 : 844 Kbps\r\nWidth                                    : 1 274 pixels\r\nHeight                                   : 720 pixels\r\nDisplay aspect ratio                     : 16:9\r\nFrame rate                               : 25.000 fps\r\nBits/(Pixel*Frame)                       : 0.037\r\nStream size                              : 315 MiB (80%)\r\nWriting library                          : Lavc57.48.101 libx265\r\nLanguage                                 : English\r\nDefault                                  : Yes\r\nForced                                   : No\r\nDURATION                                 : 00:52:09.171000000\r\nNUMBER_OF_FRAMES                         : 75024\r\nNUMBER_OF_BYTES                          : 3671935587\r\n_STATISTICS_WRITING_APP                  : mkvmerge v8.3.0 ('Over the Horizon') 64bit\r\n_STATISTICS_WRITING_DATE_UTC             : 2016-07-10 16:53:02\r\n_STATISTICS_TAGS                         : BPS DURATION NUMBER_OF_FRAMES NUMBER_OF_BYTES\r\n\r\nAudio\r\n\r\nID                                       : 2\r\nFormat                                   : AC-3\r\nFormat/Info                              : Audio Coding 3\r\nMode extension                           : CM (complete main)\r\nFormat settings, Endianness              : Big\r\nCodec ID                                 : A_AC3\r\nDuration                                 : 52mn 9s\r\nBit rate mode                            : Constant\r\nBit rate                                 : 192 Kbps\r\nChannel(s)                               : 2 channels\r\nChannel positions                        : Front: L R\r\nSampling rate                            : 48.0 KHz\r\nBit depth                                : 16 bits\r\nCompression mode                         : Lossy\r\nStream size                              : 71.6 MiB (18%)\r\nWriting library                          : Lavc57.24.102 ac3\r\nLanguage                                 : English\r\nDefault                                  : Yes\r\nForced                                   : No\r\nDURATION                                 : 00:52:09.247000000\r\nNUMBER_OF_FRAMES                         : 293360\r\nNUMBER_OF_BYTES                          : 590240320\r\n_STATISTICS_WRITING_APP                  : mkvmerge v8.3.0 ('Over the Horizon') 64bit\r\n_STATISTICS_WRITING_DATE_UTC             : 2016-07-10 16:53:02\r\n_STATISTICS_TAGS                         : BPS DURATION NUMBER_OF_FRAMES NUMBER_OF_BYTES\r\n\r\nMenu\r\n\r\n00:00:00.000                             : :00:00:00.000\r\n00:10:38.054                             : :00:10:38.054\r\n00:21:39.381                             : :00:21:39.381\r\n00:37:55.565                             : :00:37:55.565\r\n\r\n\r\n__--__--__--__--__--__--__--__--__--__--__--__--__--\r\n\r\n\r\nIMDb: http://www.imdb.com/title/tt4254242\r\n\r\nAfter adding torrent with maget link,\r\n\r\nplease add this  following trackers list to the torrent for better seeds.\r\n\r\n\r\nudp://tracker.coppersurfer.tk:6969/announce\r\n\r\nudp://tracker.opentrackr.org:1337/announce\r\n \nhttp://tracker.baravik.org:6970/announce\r\n \nhttp://tracker2.wasabii.com.tw:6969/announce\r\n\r\nudp://9.rarbg.me:2710/announce\r\n\r\n\r\n__--__--__--__--__--__--__--__--__--__--__--__--__--\r\n\r\n\r\nEnjoy!","torrent":{"xt":"urn:btih:53b6b1ae342ca65b2ee4966d13bc0ff489a278d4","amp;dn":"The+Magicians+US+S01+720p+BluRay+HEVC+2CH+x265+%5B720P%5D%5BHEVC%5D","amp;tr":["udp%3A%2F%2Ftracker.leechers-paradise.org%3A6969","udp%3A%2F%2Fzer0day.ch%3A1337","udp%3A%2F%2Fopen.demonii.com%3A1337","udp%3A%2F%2Ftracker.coppersurfer.tk%3A6969","udp%3A%2F%2Fexodus.desync.com%3A6969"],"infoHash":"53b6b1ae342ca65b2ee4966d13bc0ff489a278d4","infoHashBuffer":{"type":"Buffer","data":[83,182,177,174,52,44,166,91,46,228,150,109,19,188,15,244,137,162,120,212]},"announce":[],"urlList":[]}}